<?xml version="1.0" encoding="utf-8"?>
<!-- Generator: Adobe Illustrator 25.4.1, SVG Export Plug-In . SVG Version: 6.00 Build 0)  -->
<svg version="1.1" id="Layer_1" xmlns="http://www.w3.org/2000/svg" xmlns:xlink="http://www.w3.org/1999/xlink" x="0px" y="0px"
	 viewBox="0 0 547.32 109.82" style="enable-background:new 0 0 547.32 109.82;" xml:space="preserve">
<style type="text/css">
	.st0{fill:#DEDEDE;}
	.st1{fill:#045941;}
	.st2{fill:#98C93D;}
	.st3{fill:#085942;}
	.st4{fill:#095941;}
	.st5{fill:#085A41;}
	.st6{fill:#FFFFFF;}
	.st7{fill:#085A42;}
	.st8{fill:#095942;}
	.st9{fill:#0C5B43;}
	.st10{fill:none;}
</style>
<path class="st1" d="M67.28,35.18H78.2v14.49c1.49-1.54,2.96-2.64,4.43-3.3c1.47-0.66,3.2-0.99,5.21-0.99c2.97,0,5.31,0.9,7.02,2.71
	s2.56,4.58,2.56,8.32v18.12H86.44V58.85c0-1.79-0.33-3.06-0.99-3.8c-0.66-0.74-1.59-1.11-2.79-1.11c-1.32,0-2.4,0.5-3.22,1.5
	c-0.82,1-1.23,2.8-1.23,5.39v13.69H67.28V35.18z"/>
<path class="st1" d="M135.04,62.98h-21.9c0.2,1.75,0.67,3.06,1.42,3.92c1.05,1.23,2.43,1.85,4.13,1.85c1.07,0,2.09-0.27,3.06-0.8
	c0.59-0.34,1.23-0.94,1.91-1.8l10.76,0.99c-1.65,2.86-3.63,4.92-5.96,6.16c-2.33,1.24-5.66,1.87-10.01,1.87
	c-3.78,0-6.75-0.53-8.91-1.6s-3.96-2.75-5.38-5.07c-1.42-2.32-2.13-5.04-2.13-8.17c0-4.46,1.43-8.06,4.28-10.82
	c2.85-2.76,6.79-4.13,11.82-4.13c4.08,0,7.3,0.62,9.66,1.85c2.36,1.23,4.16,3.02,5.39,5.37c1.23,2.34,1.85,5.39,1.85,9.15V62.98z
	 M123.92,57.75c-0.21-2.11-0.78-3.62-1.7-4.54c-0.92-0.91-2.13-1.37-3.64-1.37c-1.74,0-3.12,0.69-4.16,2.07
	c-0.66,0.86-1.08,2.14-1.26,3.84H123.92z"/>
<path class="st1" d="M149.46,55.25l-10.44-1.1c0.39-1.83,0.96-3.26,1.71-4.31c0.74-1.05,1.81-1.95,3.21-2.72
	c1-0.55,2.38-0.98,4.13-1.29s3.65-0.46,5.69-0.46c3.27,0,5.9,0.18,7.89,0.55c1.99,0.37,3.64,1.13,4.96,2.29
	c0.93,0.81,1.66,1.95,2.2,3.42c0.54,1.48,0.8,2.88,0.8,4.23v12.59c0,1.34,0.08,2.39,0.25,3.15c0.17,0.76,0.54,1.73,1.11,2.91h-10.25
	c-0.41-0.73-0.68-1.29-0.8-1.68c-0.13-0.38-0.25-0.99-0.38-1.81c-1.43,1.38-2.85,2.36-4.27,2.95c-1.93,0.79-4.18,1.18-6.74,1.18
	c-3.4,0-5.98-0.79-7.74-2.36c-1.76-1.57-2.64-3.52-2.64-5.82c0-2.16,0.63-3.94,1.91-5.34c1.27-1.4,3.61-2.43,7.03-3.11
	c4.1-0.82,6.75-1.4,7.97-1.73c1.22-0.33,2.5-0.76,3.87-1.3c0-1.34-0.28-2.28-0.83-2.82c-0.55-0.54-1.53-0.81-2.93-0.81
	c-1.79,0-3.13,0.29-4.03,0.86C150.45,53.18,149.89,54.02,149.46,55.25z M158.94,61c-1.5,0.54-3.07,1.01-4.7,1.42
	c-2.22,0.59-3.62,1.17-4.21,1.75c-0.61,0.59-0.91,1.26-0.91,2.01c0,0.86,0.3,1.56,0.9,2.11c0.6,0.55,1.48,0.82,2.64,0.82
	c1.22,0,2.35-0.29,3.39-0.88c1.05-0.59,1.79-1.31,2.23-2.16c0.44-0.85,0.66-1.95,0.66-3.31V61z"/>
<path class="st1" d="M175.99,35.18h10.95v39.35h-10.95V35.18z"/>
<path class="st1" d="M206.55,35.18v10.84h6.01v8h-6.01v10.1c0,1.21,0.12,2.02,0.35,2.41c0.36,0.61,0.98,0.91,1.88,0.91
	c0.8,0,1.93-0.23,3.38-0.7l0.8,7.54c-2.7,0.59-5.22,0.89-7.57,0.89c-2.72,0-4.72-0.35-6.01-1.05s-2.24-1.76-2.86-3.18
	c-0.62-1.42-0.93-3.72-0.93-6.9V54.02h-4.03v-8h4.03v-5.23L206.55,35.18z"/>
<path class="st1" d="M217.22,35.18h10.92v14.49c1.49-1.54,2.96-2.64,4.43-3.3c1.47-0.66,3.2-0.99,5.21-0.99
	c2.97,0,5.31,0.9,7.02,2.71s2.56,4.58,2.56,8.32v18.12h-10.98V58.85c0-1.79-0.33-3.06-0.99-3.8c-0.66-0.74-1.59-1.11-2.79-1.11
	c-1.32,0-2.4,0.5-3.22,1.5c-0.82,1-1.23,2.8-1.23,5.39v13.69h-10.92V35.18z"/>
<path class="st1" d="M328.48,63.36l10.39,1.18c-0.57,2.17-1.51,4.04-2.82,5.62c-1.31,1.58-2.97,2.81-5.01,3.69
	c-2.03,0.88-4.61,1.32-7.74,1.32c-3.02,0-5.54-0.28-7.56-0.84c-2.01-0.56-3.74-1.47-5.19-2.74c-1.45-1.26-2.59-2.74-3.41-4.44
	c-0.82-1.7-1.23-3.95-1.23-6.76c0-2.93,0.5-5.37,1.5-7.32c0.73-1.43,1.74-2.71,3.01-3.85s2.58-1.98,3.92-2.53
	c2.13-0.88,4.86-1.31,8.19-1.31c4.65,0,8.2,0.83,10.64,2.5s4.16,4.1,5.14,7.3l-10.28,1.37c-0.32-1.22-0.91-2.13-1.76-2.75
	c-0.85-0.62-1.99-0.93-3.42-0.93c-1.81,0-3.27,0.65-4.39,1.94s-1.68,3.25-1.68,5.88c0,2.34,0.55,4.12,1.66,5.33
	c1.11,1.21,2.52,1.82,4.24,1.82c1.43,0,2.63-0.37,3.61-1.1C327.27,66.01,328,64.88,328.48,63.36z"/>
<path class="st1" d="M341.99,60.35c0-4.35,1.47-7.93,4.4-10.75c2.93-2.82,6.9-4.23,11.89-4.23c5.71,0,10.02,1.66,12.94,4.97
	c2.34,2.67,3.52,5.95,3.52,9.85c0,4.38-1.45,7.98-4.36,10.78c-2.91,2.8-6.93,4.2-12.06,4.2c-4.58,0-8.28-1.16-11.11-3.49
	C343.73,68.8,341.99,65.02,341.99,60.35z M352.94,60.33c0,2.54,0.51,4.42,1.54,5.64c1.03,1.22,2.32,1.83,3.88,1.83
	c1.57,0,2.87-0.6,3.88-1.8c1.01-1.2,1.52-3.12,1.52-5.77c0-2.47-0.51-4.31-1.53-5.52c-1.02-1.21-2.28-1.81-3.78-1.81
	c-1.59,0-2.91,0.61-3.95,1.84S352.94,57.82,352.94,60.33z"/>
<path class="st1" d="M378.11,60.35c0-4.35,1.47-7.93,4.4-10.75c2.93-2.82,6.9-4.23,11.89-4.23c5.71,0,10.02,1.66,12.94,4.97
	c2.34,2.67,3.52,5.95,3.52,9.85c0,4.38-1.45,7.98-4.36,10.78c-2.91,2.8-6.93,4.2-12.06,4.2c-4.58,0-8.28-1.16-11.11-3.49
	C379.84,68.8,378.11,65.02,378.11,60.35z M389.06,60.33c0,2.54,0.51,4.42,1.54,5.64c1.03,1.22,2.32,1.83,3.88,1.83
	c1.57,0,2.87-0.6,3.88-1.8c1.01-1.2,1.52-3.12,1.52-5.77c0-2.47-0.51-4.31-1.53-5.52c-1.02-1.21-2.28-1.81-3.78-1.81
	c-1.59,0-2.91,0.61-3.95,1.84S389.06,57.82,389.06,60.33z"/>
<path class="st1" d="M415.56,35.18h11.17v20.31l8.16-9.47h13.45l-10.23,9.98l10.82,18.52h-12.31l-5.77-11.43l-4.12,4.02v7.41h-11.17
	V35.18z"/>
<path class="st1" d="M449.74,66.61l10.84-1.02c0.45,1.29,1.07,2.21,1.88,2.76c0.8,0.55,1.88,0.83,3.22,0.83
	c1.47,0,2.6-0.31,3.41-0.94c0.63-0.46,0.94-1.04,0.94-1.74c0-0.79-0.41-1.39-1.23-1.82c-0.59-0.3-2.16-0.68-4.7-1.13
	c-3.79-0.66-6.43-1.27-7.9-1.84c-1.48-0.56-2.72-1.51-3.73-2.86c-1.01-1.34-1.52-2.87-1.52-4.58c0-1.88,0.55-3.49,1.64-4.85
	c1.09-1.36,2.59-2.37,4.51-3.04c1.91-0.67,4.48-1.01,7.7-1.01c3.4,0,5.91,0.26,7.53,0.78c1.62,0.52,2.97,1.32,4.05,2.42
	c1.08,1.09,1.98,2.57,2.7,4.43l-10.36,1.02c-0.27-0.91-0.72-1.58-1.34-2.01c-0.86-0.57-1.9-0.86-3.11-0.86
	c-1.23,0-2.13,0.22-2.7,0.66c-0.56,0.44-0.85,0.97-0.85,1.59c0,0.7,0.36,1.22,1.07,1.58s2.27,0.68,4.67,0.96
	c3.63,0.41,6.33,0.98,8.11,1.72c1.77,0.73,3.13,1.78,4.07,3.14s1.41,2.85,1.41,4.48c0,1.64-0.5,3.24-1.49,4.8
	c-0.99,1.56-2.56,2.79-4.7,3.71c-2.14,0.92-5.05,1.38-8.74,1.38c-5.21,0-8.92-0.74-11.12-2.23
	C451.78,71.46,450.37,69.34,449.74,66.61z"/>
<g>
	<path class="st2" d="M302.76,62.98h-21.91c0.2,1.75,0.67,3.06,1.42,3.92c1.06,1.23,2.43,1.85,4.13,1.85c1.07,0,2.09-0.27,3.06-0.81
		c0.59-0.34,1.23-0.94,1.91-1.8l10.77,0.99c-1.65,2.86-3.63,4.92-5.96,6.16c-2.33,1.24-5.67,1.87-10.01,1.87
		c-3.78,0-6.75-0.53-8.91-1.6c-2.17-1.06-3.96-2.76-5.38-5.07c-1.42-2.32-2.13-5.04-2.13-8.18c0-4.46,1.43-8.06,4.28-10.82
		c2.85-2.76,6.8-4.13,11.83-4.13c4.08,0,7.3,0.62,9.67,1.85c2.36,1.23,4.16,3.02,5.4,5.37c1.23,2.35,1.85,5.4,1.85,9.16V62.98z
		 M291.65,57.74c-0.21-2.11-0.78-3.62-1.71-4.54s-2.13-1.37-3.64-1.37c-1.74,0-3.12,0.69-4.16,2.07c-0.66,0.86-1.08,2.14-1.26,3.84
		H291.65z"/>
</g>
<g>
	<path class="st3" d="M302.89,13.68c-0.35-2.38-1.63-4.23-3.53-5.64c-2.11-1.57-4.61-2.01-7.15-2.18c-2.9-0.19-5.66,0.51-8.2,1.89
		c-2.75,1.49-5.44,3.07-8.16,4.61c-0.21,0.12-0.36,0.24-0.61-0.05c-2.73-3.16-6.18-4.29-10.23-3.36c-1.74,0.4-3.38,1.17-4.96,2.02
		c-4.67,2.5-8.06,6.13-9.68,11.25c-0.61,1.95-1.03,3.97-0.63,6c0.73,3.65,2.88,6.22,6.35,7.55c2.2,0.85,4.53,1.02,6.88,0.83
		c0.99-0.08,0.98-0.09,1.08,0.84c0.01,0.07,0.02,0.13,0.03,0.2c0.51,2.15,1.01,4.3,1.55,6.43c0.27,1.07,0.52,2.13,0.96,3.18
		c0.6,1.42,0.81,3,1.15,4.52c0.07,0.32,0.22,0.47,0.5,0.6c0.76,0.33,1.5,0.7,2.25,1.05c0.36,0.16,0.74,0.27,1.14,0.33
		c1.13,0.17,2.3,0.1,3.41,0.41c1.03,0.29,2.07,0.3,3.13,0.3c1.06,0.01,2.08-0.22,3.12-0.33c0.09,0.05,0.2,0.04,0.29,0.03
		c2.18-0.43,4.25-1.16,6.2-2.22c0.01-0.04,0.03-0.06,0.06-0.09c0.03,0,0.05,0,0.08,0c0.65-0.34,1.3-0.68,1.95-1.01
		c0.63-0.25,1.21-0.59,1.8-0.93c0.63-0.32,1.25-0.65,1.82-1.06c0,0,0,0,0,0c0.88-0.43,1.64-1.07,2.56-1.43
		c0.35-0.3,0.7-0.62,1.07-0.9c0.22-0.18,0.37-0.34,0.29-0.66c-0.13-0.52-0.05-1.06-0.12-1.59c-0.22-1.72-0.47-3.43-0.73-5.14
		c-0.28-1.83-0.57-3.65-0.87-5.47c-0.17-1.01-0.22-2.06-0.64-3.01c-0.18-0.41-0.08-0.59,0.22-0.82c0.86-0.64,1.63-1.39,2.36-2.17
		c2.68-2.84,4.4-6.18,5.08-10.04C302.93,16.31,303.09,14.99,302.89,13.68z M299.67,17.38c-0.37,2.74-1.49,5.15-3.36,7.16
		c-1.65,1.76-3.25,3.56-4.71,5.47c-0.71,0.93-1.43,1.85-2.09,2.82c-0.3,0.43-0.23,0.59,0.26,0.78c0.53,0.2,1.01,0.13,1.45-0.24
		c0.27-0.23,0.53-0.49,0.83-0.66c0.07,0.07,0.08,0.12,0.09,0.16c0.37,2.06,0.74,4.12,1.13,6.17c0.04,0.23,0.04,0.5,0.2,0.67
		c0.45,0.47,0.49,1.08,0.61,1.67c0.3,1.46,0.54,2.93,0.84,4.39c0.06,0.3,0.07,0.57-0.21,0.77c-0.18,0.12-0.35,0.34-0.57,0.26
		c-0.21-0.07-0.16-0.35-0.19-0.54c-0.24-1.39-0.47-2.77-0.69-4.16c-0.06-0.39-0.25-0.54-0.63-0.54c-0.4,0-0.8,0.05-1.2,0.1
		c-0.49,0.07-0.61,0.18-0.55,0.69c0.19,1.51,0.65,2.93,1.3,4.3c0.02,0.02,0.04,0.05,0.06,0.07c-0.04,0.16,0.05,0.31,0.08,0.46
		c0.11,0.57,0.05,0.73-0.44,1.07c-0.12,0.08-0.27,0.15-0.3,0.32c-0.01,0.01-0.03,0.01-0.04,0.01c-0.13,0.09-0.28,0.13-0.43,0.16
		c-0.09,0.04-0.2,0.05-0.27,0.12c-0.01-0.02-0.03-0.05-0.04-0.07c-0.31-0.53-0.42-1.12-0.48-1.72c-0.18-1.59-0.4-3.19-0.71-4.76
		c-0.22-1.16-0.51-2.31-0.81-3.46c-0.17-0.66-0.27-1.35-0.55-1.98c-0.2-0.46-0.53-0.68-0.88-0.61c-0.44,0.09-0.5,0.47-0.53,0.81
		c-0.05,0.45-0.12,0.89-0.25,1.33c-0.07,0.23-0.06,0.46-0.03,0.69c0.33,2.27,1.07,4.4,2.12,6.44c0.48,0.93,0.71,1.96,0.73,3
		c0.01,0.67-0.21,1.29-0.98,1.51c-0.16,0.04-0.32,0.11-0.37,0.3c0,0.01,0,0.02,0,0.04c-0.04-0.04-0.07-0.08-0.12-0.12
		c-0.17-0.01-0.33,0.06-0.49,0.11c-0.5,0.15-0.53,0.13-0.63-0.38c-0.12-0.57-0.22-1.15-0.34-1.72c-0.54-2.69-0.94-5.41-1.78-8.03
		c-0.17-0.52-0.39-0.74-0.82-0.73c-0.46,0.01-0.67,0.34-0.82,0.71c-0.11,0.28-0.15,0.58-0.16,0.89c-0.1,2.13,0.2,4.21,0.88,6.23
		c0.33,0.99,0.62,1.98,0.87,2.99c0.26,1.07,0.33,1-0.87,1.38c-0.25,0.08-0.42,0.01-0.51-0.24c-0.33-0.93-0.76-1.83-0.95-2.8
		c-0.47-2.44-0.74-4.92-1.45-7.32c-0.36-1.23-0.55-2.52-0.8-3.78c-0.11-0.53-0.66-0.98-1.14-0.98c-0.45,0-0.77,0.34-0.87,1
		c-0.22,1.36-0.03,2.67,0.49,3.94c0.11,0.28,0.23,0.56,0.24,0.87c0.02,0.48,0.18,0.91,0.39,1.34c0.77,1.54,1.53,3.09,2.32,4.62
		c0.28,0.53,0.36,1.07,0.27,1.65c-0.05,0.35-0.07,0.7-0.07,1.05c0,1.34-0.05,1.39-1.42,1.47c-0.56,0.03-0.71-0.08-0.84-0.63
		c-0.61-2.51-1.28-4.99-1.89-7.5c-0.1-0.41-0.28-0.8-0.29-1.22c-0.02-1.69-0.52-3.3-0.83-4.94c-0.06-0.3-0.17-0.58-0.34-0.83
		c-0.31-0.46-0.78-0.47-1.26-0.43c-0.42,0.04-0.59,0.33-0.71,0.68c-0.24,0.68-0.31,1.36-0.19,2.07c0.15,0.89,0.36,1.77,0.66,2.63
		c0.07,0.2,0.18,0.42,0.06,0.63c-0.18,0.33-0.07,0.61,0.08,0.9c0.59,1.07,1.14,2.17,1.79,3.2c0.94,1.49,1.44,3.11,1.74,4.83
		c0.07,0.38-0.05,0.52-0.43,0.52c-0.64-0.01-1.26-0.17-1.88-0.27c-0.43-0.07-0.65-0.3-0.68-0.73c-0.06-1-0.43-1.92-0.68-2.88
		c-0.14-0.54-0.53-0.79-1-0.7c-0.51,0.09-0.73,0.37-0.73,0.97c0,0.71,0.23,1.38,0.26,2.09c0.02,0.48-0.1,0.59-0.54,0.4
		c-0.35-0.16-0.67-0.37-1.01-0.56c-0.2-0.12-0.3-0.3-0.36-0.52c-0.75-2.55-1.2-5.17-2.12-7.68c-0.7-1.89-1.11-3.89-1.66-5.84
		c-0.14-0.51-0.1-0.54,0.4-0.72c0.43-0.16,0.94-0.13,1.3-0.48c0.01-0.02,0.01-0.03,0.02-0.05c0.6-0.16,1.21-0.31,1.81-0.48
		c2.86-0.83,5.58-1.98,8.2-3.38c0.46-0.24,0.76-0.57,0.74-1.15c-0.09,0.04-0.15,0.06-0.21,0.09c-2.82,1.51-5.78,2.63-8.89,3.39
		c-1.02,0.25-2.06,0.42-3.09,0.6c-0.24,0.02-0.48,0.04-0.72,0.02c-1.02,0.02-2.03,0.19-3.04,0.25c-1.05,0.06-2.11,0.15-3.15-0.06
		c-1.89-0.37-3.55-1.23-4.86-2.63c-1.87-1.99-2.32-4.47-1.91-7.06c0.53-3.3,2.02-6.15,4.41-8.54c2.17-2.18,4.71-3.66,7.63-4.53
		c0.88-0.26,1.79-0.39,2.72-0.31c1.34,0.11,2.52,0.64,3.62,1.36c0.39,0.25,0.84,0.43,1.1,0.85c0,0.01,0.01,0.02,0.02,0.03
		c-0.59,0.27-1.21,0.47-1.8,0.73c-1.18,0.54-2.38,0.3-3.57,0.2c-0.52-0.05-0.99,0.3-0.88,0.81c0.09,0.44,0.64,0.77,1.31,0.77
		c0.79,0,1.57-0.03,2.36,0c0.82,0.03,1.56-0.2,2.28-0.55c0.61-0.3,1.16-0.71,1.73-1.09c0.08-0.01,0.15-0.02,0.23-0.03
		c0.24-0.08,0.45-0.22,0.66-0.35c3.46-2.07,7.01-3.98,10.68-5.66c1.38-0.63,2.83-0.98,4.36-1.05c1.81-0.08,3.49,0.38,5.08,1.16
		c1.94,0.95,3.16,2.52,3.62,4.61C299.9,14.73,299.85,16.06,299.67,17.38z"/>
	<path class="st3" d="M295.34,13.91c-0.85-1.91-2.68-2.69-4.85-1.96c-0.27,0.09-0.28,0.32-0.26,0.53c0.04,0.52,0.44,0.6,0.85,0.68
		c0.87,0.17,1.5,0.61,1.7,1.54c0.09,0.43,0.15,0.85,0.19,1.29c0.08,0.88-0.15,1.73-0.2,2.6c-0.02,0.28,0.06,0.48,0.32,0.61
		c0.28,0.15,0.54,0.08,0.73-0.12c1.05-1.05,1.74-2.28,1.79-3.83c-0.01-0.17-0.01-0.37-0.05-0.57
		C295.52,14.42,295.45,14.15,295.34,13.91z"/>
	<path class="st3" d="M282.89,35.05c-0.36,0.04-0.51,0.18-0.56,0.55c-0.04,0.36-0.18,0.71-0.29,1.05c-0.1,0.3-0.16,0.62,0.11,0.83
		c0.27,0.2,0.59,0.25,0.94,0.1c0.65-0.27,0.87-0.62,0.86-1.52c0-0.18-0.05-0.41-0.14-0.62C283.63,35.01,283.29,35.01,282.89,35.05z"
		/>
	<path class="st3" d="M290.77,39.74c0.23,0.15,0.51,0.03,0.75-0.11c0.4-0.22,0.54-0.61,0.64-0.98c0.01-0.4-0.15-0.59-0.5-0.64
		c-0.72-0.11-0.76-0.08-0.83,0.64c-0.02,0.15-0.04,0.3-0.07,0.44C290.71,39.32,290.55,39.59,290.77,39.74z"/>
	<path class="st6" d="M299.62,13.44c-0.46-2.09-1.69-3.66-3.62-4.61c-1.6-0.78-3.27-1.23-5.08-1.16c-1.53,0.06-2.98,0.42-4.36,1.05
		c-3.67,1.68-7.22,3.58-10.68,5.66c-0.21,0.13-0.42,0.27-0.66,0.35c-0.08,0.02-0.16,0.03-0.23,0.03c-0.56,0.38-1.11,0.78-1.73,1.09
		c-0.72,0.35-1.46,0.58-2.28,0.55c-0.78-0.03-1.57,0.01-2.36,0c-0.67,0-1.22-0.33-1.31-0.77c-0.11-0.52,0.35-0.86,0.88-0.81
		c1.19,0.11,2.39,0.34,3.57-0.2c0.59-0.27,1.21-0.46,1.8-0.73c0-0.01-0.01-0.02-0.02-0.03c-0.26-0.42-0.71-0.59-1.1-0.85
		c-1.1-0.72-2.28-1.25-3.62-1.36c-0.93-0.08-1.84,0.05-2.72,0.31c-2.92,0.87-5.46,2.35-7.63,4.53c-2.39,2.4-3.89,5.24-4.41,8.54
		c-0.41,2.58,0.04,5.06,1.91,7.06c1.31,1.4,2.97,2.26,4.86,2.63c1.04,0.2,2.09,0.12,3.15,0.06c1.02-0.05,2.02-0.23,3.04-0.25
		c0.24,0.02,0.48,0,0.72-0.02c1.03-0.19,2.07-0.36,3.09-0.6c3.11-0.75,6.07-1.88,8.89-3.39c0.06-0.03,0.12-0.05,0.21-0.09
		c0.01,0.58-0.29,0.91-0.74,1.15c-2.62,1.4-5.35,2.55-8.2,3.38c-0.6,0.17-1.2,0.32-1.81,0.48c-0.01,0.02-0.01,0.03-0.02,0.05
		c-0.36,0.35-0.87,0.32-1.3,0.48c-0.5,0.18-0.54,0.21-0.4,0.72c0.54,1.95,0.96,3.95,1.66,5.84c0.93,2.51,1.37,5.13,2.12,7.68
		c0.06,0.22,0.16,0.4,0.36,0.52c0.33,0.19,0.66,0.41,1.01,0.56c0.44,0.19,0.56,0.08,0.54-0.4c-0.03-0.7-0.26-1.38-0.26-2.09
		c0-0.6,0.21-0.88,0.73-0.97c0.46-0.08,0.86,0.17,1,0.7c0.25,0.95,0.62,1.88,0.68,2.88c0.03,0.43,0.25,0.66,0.68,0.73
		c0.63,0.1,1.24,0.26,1.88,0.27c0.38,0,0.5-0.13,0.43-0.52c-0.29-1.71-0.8-3.34-1.74-4.83c-0.65-1.03-1.2-2.13-1.79-3.2
		c-0.16-0.29-0.26-0.57-0.08-0.9c0.11-0.21,0.01-0.43-0.06-0.63c-0.3-0.86-0.51-1.73-0.66-2.63c-0.12-0.71-0.05-1.4,0.19-2.07
		c0.13-0.35,0.3-0.64,0.71-0.68c0.48-0.04,0.95-0.03,1.26,0.43c0.17,0.25,0.28,0.53,0.34,0.83c0.31,1.64,0.81,3.25,0.83,4.94
		c0.01,0.42,0.19,0.81,0.29,1.22c0.61,2.5,1.29,4.99,1.89,7.5c0.13,0.55,0.28,0.66,0.84,0.63c1.37-0.08,1.42-0.13,1.42-1.47
		c0-0.35,0.01-0.7,0.07-1.05c0.09-0.58,0.01-1.12-0.27-1.65c-0.79-1.53-1.55-3.08-2.32-4.62c-0.21-0.42-0.37-0.86-0.39-1.34
		c-0.01-0.31-0.13-0.59-0.24-0.87c-0.51-1.27-0.7-2.58-0.49-3.94c0.11-0.66,0.43-1,0.87-1c0.48,0,1.03,0.45,1.14,0.98
		c0.26,1.26,0.44,2.55,0.8,3.78c0.71,2.4,0.98,4.88,1.45,7.32c0.19,0.97,0.62,1.87,0.95,2.8c0.09,0.26,0.26,0.32,0.51,0.24
		c1.2-0.39,1.13-0.31,0.87-1.38c-0.24-1.01-0.54-2-0.87-2.99c-0.68-2.02-0.98-4.09-0.88-6.23c0.01-0.3,0.05-0.61,0.16-0.89
		c0.14-0.37,0.36-0.7,0.82-0.71c0.43-0.01,0.65,0.21,0.82,0.73c0.84,2.62,1.24,5.34,1.78,8.03c0.11,0.57,0.22,1.15,0.34,1.72
		c0.1,0.51,0.14,0.52,0.63,0.38c0.16-0.05,0.32-0.11,0.49-0.11c0.04,0.04,0.08,0.08,0.12,0.12c0-0.01,0-0.02,0-0.04
		c0.05-0.19,0.21-0.26,0.37-0.3c0.77-0.22,0.99-0.84,0.98-1.51c-0.02-1.04-0.25-2.07-0.73-3c-1.05-2.04-1.78-4.17-2.12-6.44
		c-0.03-0.24-0.05-0.47,0.03-0.69c0.14-0.43,0.21-0.87,0.25-1.33c0.03-0.34,0.09-0.72,0.53-0.81c0.35-0.07,0.67,0.15,0.88,0.61
		c0.28,0.63,0.38,1.32,0.55,1.98c0.29,1.15,0.58,2.3,0.81,3.46c0.3,1.57,0.53,3.16,0.71,4.76c0.07,0.6,0.17,1.19,0.48,1.72
		c0.01,0.02,0.02,0.05,0.04,0.07c0.07-0.07,0.18-0.08,0.27-0.12c0.15-0.03,0.3-0.07,0.43-0.16c0.01-0.01,0.03-0.01,0.04-0.01
		c0.03-0.17,0.18-0.24,0.3-0.32c0.49-0.33,0.55-0.5,0.44-1.07c-0.03-0.15-0.13-0.3-0.08-0.46c-0.02-0.02-0.04-0.05-0.06-0.07
		c-0.65-1.37-1.11-2.8-1.3-4.3c-0.07-0.51,0.06-0.62,0.55-0.69c0.4-0.05,0.79-0.1,1.2-0.1c0.38,0,0.57,0.15,0.63,0.54
		c0.22,1.39,0.46,2.77,0.69,4.16c0.03,0.19-0.02,0.46,0.19,0.54c0.21,0.08,0.39-0.14,0.57-0.26c0.28-0.19,0.27-0.47,0.21-0.77
		c-0.29-1.46-0.54-2.93-0.84-4.39c-0.12-0.59-0.15-1.19-0.61-1.67c-0.16-0.17-0.15-0.44-0.2-0.67c-0.39-2.06-0.76-4.12-1.13-6.17
		c-0.01-0.05-0.02-0.1-0.09-0.16c-0.3,0.17-0.56,0.44-0.83,0.66c-0.45,0.37-0.92,0.44-1.45,0.24c-0.48-0.18-0.55-0.34-0.26-0.78
		c0.66-0.97,1.38-1.89,2.09-2.82c1.47-1.91,3.06-3.71,4.71-5.47c1.88-2,3-4.42,3.36-7.16C299.85,16.06,299.9,14.73,299.62,13.44z
		 M283.09,37.59c-0.35,0.15-0.68,0.09-0.94-0.1c-0.27-0.2-0.21-0.53-0.11-0.83c0.11-0.35,0.25-0.7,0.29-1.05
		c0.05-0.37,0.2-0.52,0.56-0.55c0.4-0.04,0.74-0.03,0.92,0.39c0.09,0.22,0.15,0.44,0.14,0.62
		C283.95,36.97,283.74,37.32,283.09,37.59z M290.76,39.09c0.03-0.15,0.06-0.3,0.07-0.44c0.08-0.72,0.12-0.75,0.83-0.64
		c0.35,0.06,0.51,0.25,0.5,0.64c-0.1,0.37-0.24,0.76-0.64,0.98c-0.24,0.13-0.53,0.26-0.75,0.11
		C290.55,39.59,290.71,39.32,290.76,39.09z M293.83,19.08c-0.2,0.2-0.45,0.27-0.73,0.12c-0.26-0.13-0.34-0.33-0.32-0.61
		c0.05-0.87,0.28-1.72,0.2-2.6c-0.04-0.43-0.1-0.86-0.19-1.29c-0.2-0.93-0.83-1.37-1.7-1.54c-0.41-0.08-0.81-0.16-0.85-0.68
		c-0.02-0.21-0.01-0.44,0.26-0.53c2.17-0.73,4,0.05,4.85,1.96c0.11,0.24,0.17,0.51,0.23,0.76c0.04,0.19,0.04,0.4,0.05,0.57
		C295.57,16.8,294.88,18.03,293.83,19.08z"/>
</g>
<g>
	<path class="st1" d="M481.23,45.96h6.57v1.59h-2.34v5.09h-1.93v-5.09h-2.3V45.96z M488.56,45.96h2.93l0.93,3.65l0.98-3.65h2.84
		v6.68h-1.81v-4.72l-1.25,4.72h-1.52l-1.24-4.72v4.72h-1.85V45.96z"/>
</g>
</svg>
